<?xml version="1.0" encoding="UTF-8" standalone="no"?>
<!DOCTYPE svg PUBLIC "-//W3C//DTD SVG 1.1//EN"
 "http://www.w3.org/Graphics/SVG/1.1/DTD/svg11.dtd">
<!-- Generated by graphviz version 2.47.3 (20210619.1520)
 -->
<!-- Title: StateMachine Pages: 1 -->
<svg width="394pt" height="146pt"
 viewBox="0.00 0.00 394.49 146.00" xmlns="http://www.w3.org/2000/svg" xmlns:xlink="http://www.w3.org/1999/xlink">
<g id="graph0" class="graph" transform="scale(1 1) rotate(0) translate(4 142)">
<title>StateMachine</title>
<polygon fill="white" stroke="transparent" points="-4,4 -4,-142 390.49,-142 390.49,4 -4,4"/>
<!-- OUT -->
<g id="node1" class="node">
<title>OUT</title>
<polygon fill="red" stroke="red" points="113.49,-138 59.49,-138 59.49,-102 113.49,-102 113.49,-138"/>
<text text-anchor="middle" x="86.49" y="-116.3" font-family="Times,serif" font-size="14.00">OUT</text>
</g>
<!-- OUT&#45;&gt;OUT -->
<g id="edge1" class="edge">
<title>OUT&#45;&gt;OUT</title>
<path fill="none" stroke="red" d="M113.72,-127.77C137.83,-131.43 163.49,-128.84 163.49,-120 163.49,-111.78 141.31,-108.97 118.82,-111.55"/>
<polygon fill="red" stroke="red" points="118.45,-109.84 113.72,-112.23 118.91,-113.31 118.45,-109.84"/>
<text text-anchor="middle" x="255.99" y="-116.3" font-family="Courier,monospace" font-size="14.00">&#39;&#39; || &#39;t&#39; || &#39;\n&#39; </text>
<text text-anchor="middle" x="209.99" y="-6.8" font-family="Courier,monospace" font-size="14.00"> imprimir caracter</text>
</g>
<!-- IN -->
<g id="node2" class="node">
<title>IN</title>
<polygon fill="green" stroke="green" points="113.49,-36 59.49,-36 59.49,0 113.49,0 113.49,-36"/>
<text text-anchor="middle" x="86.49" y="-14.3" font-family="Times,serif" font-size="14.00">IN</text>
</g>
<!-- OUT&#45;&gt;IN -->
<g id="edge2" class="edge">
<title>OUT&#45;&gt;IN</title>
<path fill="none" stroke="green" d="M59.32,-115.08C40.72,-110.83 17.36,-102.05 5.49,-84 -1.83,-72.86 -1.83,-65.14 5.49,-54 16.34,-37.5 36.79,-28.74 54.43,-24.11"/>
<polygon fill="green" stroke="green" points="54.88,-25.81 59.32,-22.92 54.05,-22.41 54.88,-25.81"/>
<text text-anchor="middle" x="51.99" y="-72.8" font-family="Courier,monospace" font-size="14.00">prev='/' & (c='/' || c='*'), </text>
<text text-anchor="middle" x="51.99" y="-57.8" font-family="Courier,monospace" font-size="14.00">asignar state coment_type (Blocl || Line)</text>
</g>
<!-- IN&#45;&gt;OUT -->
<g id="edge3" class="edge">
<title>IN&#45;&gt;OUT</title>
<path fill="none" stroke="red" d="M98.57,-36.03C101.79,-41.51 104.84,-47.78 106.49,-54 109.91,-66.89 109.91,-71.11 106.49,-84 105.28,-88.57 103.31,-93.17 101.08,-97.45"/>
<polygon fill="red" stroke="red" points="99.46,-96.75 98.57,-101.97 102.52,-98.45 99.46,-96.75"/>
<text text-anchor="middle" x="247.49" y="-72.8" font-family="Courier,monospace" font-size="14.00">&#39;&#39; || &#39;t&#39; || &#39;\n&#39;(state comment_type = LINE && (c == '\n')) | (state comment_type = End_Block) </text>
<text text-anchor="middle" x="247.49" y="-57.8" font-family="Courier,monospace" font-size="14.00">imprimir caracter</text>
</g>
<!-- IN&#45;&gt;IN -->
<g id="edge4" class="edge">
<title>IN&#45;&gt;IN</title>
<path fill="none" stroke="green" d="M113.72,-25.77C137.83,-29.43 163.49,-26.84 163.49,-18 163.49,-9.78 141.31,-6.97 118.82,-9.55"/>
<polygon fill="green" stroke="green" points="118.45,-7.84 113.72,-10.23 118.91,-11.31 118.45,-7.84"/>
<text text-anchor="middle" x="209.99" y="-21.8" font-family="Courier,monospace" font-size="14.00">(prev == '*' && c == '/') /</text>
<text text-anchor="middle" x="209.99" y="-6.8" font-family="Courier,monospace" font-size="14.00"> asignar state comment_type = End_Block</text>
</g>
</g>
</svg>
